<?xml version="1.0" encoding="UTF-8" standalone="no"?>
<!-- Generator: Adobe Illustrator 16.0.0, SVG Export Plug-In . SVG Version: 6.00 Build 0)  -->

<svg
   xmlns:dc="http://purl.org/dc/elements/1.1/"
   xmlns:cc="http://creativecommons.org/ns#"
   xmlns:rdf="http://www.w3.org/1999/02/22-rdf-syntax-ns#"
   xmlns:svg="http://www.w3.org/2000/svg"
   xmlns="http://www.w3.org/2000/svg"
   xmlns:sodipodi="http://sodipodi.sourceforge.net/DTD/sodipodi-0.dtd"
   xmlns:inkscape="http://www.inkscape.org/namespaces/inkscape"
   version="1.1"
   id="Capa_1"
   x="0px"
   y="0px"
   width="512px"
   height="512px"
   viewBox="0 0 97.75 97.75"
   style="enable-background:new 0 0 97.75 97.75;"
   xml:space="preserve"
   sodipodi:docname="linkedin.svg"><metadata
   id="metadata49"><rdf:RDF><cc:Work
       rdf:about=""><dc:format>image/svg+xml</dc:format><dc:type
         rdf:resource="http://purl.org/dc/dcmitype/StillImage" /></cc:Work></rdf:RDF></metadata><defs
   id="defs47" /><sodipodi:namedview
   pagecolor="#ffffff"
   bordercolor="#666666"
   borderopacity="1"
   objecttolerance="10"
   gridtolerance="10"
   guidetolerance="10"
   inkscape:pageopacity="0"
   inkscape:pageshadow="2"
   inkscape:window-width="1366"
   inkscape:window-height="745"
   id="namedview45"
   showgrid="false"
   inkscape:zoom="1.125"
   inkscape:cx="256"
   inkscape:cy="256"
   inkscape:window-x="-8"
   inkscape:window-y="-8"
   inkscape:window-maximized="1"
   inkscape:current-layer="Capa_1" />
<g
   id="g3761"
   transform="translate(0.16970486)"><a
     id="a51"><g
       id="g12">
	<path
   d="M 48.875,0 C 21.882,0 0,21.882 0,48.875 0,75.868 21.882,97.75 48.875,97.75 75.868,97.75 97.75,75.868 97.75,48.875 97.75,21.882 75.868,0 48.875,0 Z M 30.562,81.966 H 16.822 V 37.758 h 13.74 V 81.966 Z M 23.695,31.715 c -4.404,0 -7.969,-3.57 -7.969,-7.968 10e-4,-4.394 3.565,-7.964 7.969,-7.964 4.392,0 7.962,3.57 7.962,7.964 0,4.399 -3.571,7.968 -7.962,7.968 z M 82.023,81.966 H 68.294 V 60.467 c 0,-5.127 -0.095,-11.721 -7.142,-11.721 -7.146,0 -8.245,5.584 -8.245,11.35 V 81.965 H 39.179 V 37.758 h 13.178 v 6.041 h 0.185 c 1.835,-3.476 6.315,-7.14 13,-7.14 13.913,0 16.481,9.156 16.481,21.059 z"
   id="path10"
   inkscape:connector-curvature="0"
   style="fill:#232729" />
</g></a></g>
<g
   id="g14">
</g>
<g
   id="g16">
</g>
<g
   id="g18">
</g>
<g
   id="g20">
</g>
<g
   id="g22">
</g>
<g
   id="g24">
</g>
<g
   id="g26">
</g>
<g
   id="g28">
</g>
<g
   id="g30">
</g>
<g
   id="g32">
</g>
<g
   id="g34">
</g>
<g
   id="g36">
</g>
<g
   id="g38">
</g>
<g
   id="g40">
</g>
<g
   id="g42">
</g>
<ellipse
   id="path4568"
   cx="76.282333"
   cy="39.710938"
   rx="36.741104"
   ry="36.486546"
   style="stroke-width:0.19091797" /></svg>